<svg width="737" height="586" viewBox="0 0 737 586" fill="none" xmlns="http://www.w3.org/2000/svg">
<g clip-path="url(#clip0)">
<path opacity="0.1" d="M432.225 99.0311C385.591 97.4096 341.17 82.3553 298.759 65.8814C256.347 49.4074 214.34 31.1535 168.823 22.4265C139.547 16.8126 106.064 16.0199 82.4804 31.7156C59.7761 46.8491 52.441 72.9005 48.4996 97.0997C45.531 115.303 43.7873 134.458 51.9222 151.501C57.5641 163.334 67.5868 173.279 74.5112 184.651C98.6278 224.085 81.587 272.714 55.4529 311.218C43.2037 329.284 28.9729 346.53 19.5194 365.742C10.0659 384.954 5.685 406.999 13.9568 426.615C22.1638 446.072 41.7121 460.658 62.8817 470.927C105.891 491.79 156.552 497.757 205.989 501.137C315.389 508.624 425.365 505.381 535.053 502.139C575.649 500.935 616.417 499.717 656.349 493.44C678.528 489.952 701.419 484.425 717.524 471.064C737.958 454.107 743.024 425.39 729.333 404.131C706.355 368.466 642.868 359.609 626.786 321.329C617.952 300.264 627.031 276.8 639.871 257.256C667.424 215.343 713.604 178.569 716.039 130.66C717.711 97.7483 695.504 64.8004 661.177 49.2273C625.2 32.847 575.296 34.9225 548.765 61.9394C521.428 89.778 473.396 100.458 432.225 99.0311Z" fill="#6C63FF"/>
<path d="M313.761 497.606L67.1331 496.402L42.6274 438.916L129.28 432.625L114.177 369.597L285.566 347.38L121.448 290.319L135.945 286.875L399.844 329.933L385.31 428.294L364.537 482.35L313.761 497.606Z" fill="#6C63FF"/>
<path d="M70.916 472.325C70.916 472.325 86.0474 469.904 95.1263 480.598C95.1263 480.598 88.4684 485.845 74.144 478.581L70.916 472.325Z" fill="#6C63FF"/>
<path d="M69.3307 472.088C69.3307 472.088 59.6754 483.971 64.431 497.202C64.431 497.202 72.2993 494.053 73.1568 478.011L69.3307 472.088Z" fill="#6C63FF"/>
<path d="M60.6553 452.551C60.6553 452.551 66.7078 441.446 90.9181 456.99C90.9181 456.99 87.69 464.456 76.9972 463.851C66.3043 463.245 63.4798 458.403 60.6553 452.551Z" fill="#6C63FF"/>
<path d="M59.0917 451.751C59.0917 451.751 46.5327 450.31 45.3149 479.063C45.3149 479.063 53.2769 480.714 58.9332 471.619C64.5895 462.525 62.2693 457.422 59.0917 451.751Z" fill="#6C63FF"/>
<path d="M51.7783 428.813C51.7783 428.813 58.8396 409.24 84.4621 423.163C84.4621 423.163 78.6113 441.121 54.4011 435.472L51.7783 428.813Z" fill="#6C63FF"/>
<path d="M43.9097 399.555C43.9097 399.555 57.2253 379.78 80.8303 398.113C80.8303 398.113 72.5584 416.677 45.9272 406.588L43.9097 399.555Z" fill="#6C63FF"/>
<path d="M41.0854 371.709C41.0854 371.709 56.6204 353.541 79.9948 371.709C79.9948 371.709 65.2669 387.65 41.0854 376.35V371.709Z" fill="#6C63FF"/>
<path d="M38.6641 344.663C38.6641 344.663 54.4007 325.696 76.7952 343.654C76.7952 343.654 59.041 360.402 38.6641 349.102V344.663Z" fill="#6C63FF"/>
<path d="M40.0767 320.651C40.0767 320.651 56.6491 296.236 77.6025 312.782C77.6025 312.782 59.8484 333.767 40.0767 325.292V320.651Z" fill="#6C63FF"/>
<path d="M43.9097 292.604C43.9097 292.604 61.4621 268.39 81.839 286.954C81.839 286.954 61.0586 307.939 43.9097 297.043V292.604Z" fill="#6C63FF"/>
<path d="M49.7609 267.532C49.7609 267.532 70.5414 244.774 88.6702 253.84C88.6702 253.84 67.0179 278.011 48.853 273.571L49.7609 267.532Z" fill="#6C63FF"/>
<path d="M57.0237 243.765C57.0237 243.765 81.0034 215.891 94.9531 225.202C94.9531 225.202 77.2854 246.821 55.3232 248.983L57.0237 243.765Z" fill="#6C63FF"/>
<path d="M67.5078 216.201C67.5078 216.201 88.4972 193.443 103.83 199.093C103.83 199.093 85.8744 222.701 64.6904 223.306L67.5078 216.201Z" fill="#6C63FF"/>
<path d="M76.997 190.416C76.997 190.416 100.199 168.624 110.286 172.458C110.286 172.458 93.5407 196.671 75.9883 195.259L76.997 190.416Z" fill="#6C63FF"/>
<path d="M86.2778 166.606C86.2778 166.606 106.251 140.569 117.153 142.587C117.153 142.587 105.041 165.799 86.2778 169.251V166.606Z" fill="#6C63FF"/>
<path d="M96.3508 134.501C96.3508 134.501 114.004 114.547 123.544 114.59C123.544 114.59 109.609 141.254 95.623 141.009L96.3508 134.501Z" fill="#6C63FF"/>
<path d="M102.317 113.127L119.372 71.5601C119.372 71.5601 120.222 109.135 100.148 120.838L102.317 113.127Z" fill="#6C63FF"/>
<path d="M109.241 67.2867C109.241 67.2867 112.066 32.5732 110.25 29.7483C110.25 29.7483 122.442 58.6101 109.126 82.622L109.241 67.2867Z" fill="#6C63FF"/>
<path d="M51.1154 428.352C51.1154 428.352 33.4333 417.391 21.9839 444.206C21.9839 444.206 37.7205 454.655 53.1978 435.191L51.1154 428.352Z" fill="#6C63FF"/>
<path d="M43.3406 398.438C43.3406 398.438 21.6522 388.543 11.1323 416.54C11.1323 416.54 27.8849 428.071 45.3149 405.514L43.3406 398.438Z" fill="#6C63FF"/>
<path d="M40.0768 373.374C40.0768 373.374 24.5419 355.206 1.16748 373.374C1.16748 373.374 15.8954 389.314 40.0768 378.015V373.374Z" fill="#6C63FF"/>
<path d="M38.1311 344.663C38.1311 344.663 22.3945 325.696 0 343.654C0 343.654 17.7542 360.402 38.1311 349.102V344.663Z" fill="#6C63FF"/>
<path d="M40.0767 321.343C40.0767 321.343 29.038 293.994 5.04395 305.755C5.04395 305.755 18.0137 330.005 39.0968 325.883L40.0767 321.343Z" fill="#6C63FF"/>
<path d="M45.3003 292.467C45.3003 292.467 34.3264 264.643 9.99365 277.542C9.99365 277.542 24.8945 303.046 44.2194 296.762L45.3003 292.467Z" fill="#6C63FF"/>
<path d="M52.1025 267.669C52.1025 267.669 47.7792 237.164 27.604 234.433C27.604 234.433 31.884 266.603 49.386 273.168L52.1025 267.669Z" fill="#6C63FF"/>
<path d="M57.5356 243.823C57.5356 243.823 55.8495 207.07 39.1689 205.787C39.1689 205.787 39.731 233.684 55.655 249.026L57.5356 243.823Z" fill="#6C63FF"/>
<path d="M69.237 215.17C69.237 215.17 64.2653 184.608 48.3413 180.875C48.3413 180.875 50.3156 210.472 67.6591 222.672L69.237 215.17Z" fill="#6C63FF"/>
<path d="M78.8851 190.668C78.8851 190.668 78.7194 158.83 68.9921 154.153C68.9921 154.153 62.9611 182.979 76.0678 194.733L78.8851 190.668Z" fill="#6C63FF"/>
<path d="M87.0201 166.246C87.0201 166.246 85.6583 133.464 75.5851 128.844C75.5851 128.844 72.1409 154.787 85.5142 168.393L87.0201 166.246Z" fill="#6C63FF"/>
<path d="M97.7562 137.117C97.7562 137.117 97.6985 110.453 90.5075 104.198C90.5075 104.198 83.3597 133.406 94.0021 142.479L97.7562 137.117Z" fill="#6C63FF"/>
<path d="M101.474 111.815L94.4775 67.438C94.4775 67.438 84.9735 103.802 101.805 119.829L101.474 111.815Z" fill="#6C63FF"/>
<path d="M102.836 67.7046C102.836 67.7046 84.8798 37.8699 85.2473 34.5549C85.2473 34.5549 87.1567 65.8237 109.746 81.3969L102.836 67.7046Z" fill="#6C63FF"/>
<path d="M104.94 58.8911C104.94 58.8911 87.9927 16.5172 80.3262 13.0869C80.3262 13.0869 104.536 25.3955 106.352 57.6805L104.94 58.8911Z" fill="#6C63FF"/>
<path d="M95.5365 141.261L94.3765 140.908C108.679 94.2604 112.246 64.5194 104.428 57.0607L105.257 56.1815C113.55 64.051 110.185 93.4677 95.5365 141.261Z" fill="#444053"/>
<path d="M56.1519 250.482L54.437 249.869C55.9574 245.596 57.593 241.258 59.3079 236.984C74.2375 199.77 86.9479 165.15 95.0972 138.573L96.5888 137.852C88.425 164.48 75.938 200.426 60.9939 237.691C59.2863 241.885 57.6578 246.201 56.1519 250.482Z" fill="#444053"/>
<path d="M92.2364 507.233C92.0058 506.981 68.8259 480.872 52.6642 436.3C43.1943 410.205 37.9241 382.773 37.05 355.026C35.9404 320.341 43.2179 281.614 55.6833 246.432L57.0379 248.017C29.052 326.978 40.17 394.64 54.9195 435.385C70.9083 479.553 93.8288 505.374 94.0522 505.634L92.2364 507.233Z" fill="#444053"/>
<path d="M454.468 451.801C454.468 451.801 438.133 471.742 451.103 501.886L320.685 558.457L308.169 561.08L302.405 535.858L306.26 504.027V486.63L454.468 451.801Z" fill="#D5D6DB"/>
<path d="M42.6274 438.916L223.138 406.004L462.322 444.112L313.761 497.606L42.6274 438.916Z" fill="#6C63FF"/>
<path d="M42.6274 438.916L223.138 406.004L462.322 444.112L313.761 497.606L42.6274 438.916Z" fill="#6C63FF"/>
<path d="M42.6275 438.909C42.6275 438.909 25.7452 470.899 45.1998 500.445L312.881 558.457C312.881 558.457 296.266 532.975 313.739 497.606L42.6275 438.909Z" fill="#6C63FF"/>
<path opacity="0.1" d="M42.6275 438.909C42.6275 438.909 25.7452 470.899 45.1998 500.445L312.881 558.457C312.881 558.457 296.266 532.975 313.739 497.606L42.6275 438.909Z" fill="black"/>
<path opacity="0.1" d="M50.6039 450C50.6039 450 40.9559 473.406 50.6039 488.554V450Z" fill="black"/>
<path d="M312.881 558.457L462.322 494.68C462.322 494.68 470.68 496.481 465.276 502.607C459.872 508.732 315.764 564.582 315.764 564.582L45.1997 500.445L312.881 558.457Z" fill="#6C63FF"/>
<path opacity="0.1" d="M312.881 558.457L462.322 494.68C462.322 494.68 470.68 496.481 465.276 502.607C459.872 508.732 315.764 564.582 315.764 564.582L45.1997 500.445L312.881 558.457Z" fill="black"/>
<path opacity="0.1" d="M300.632 504.048C300.632 504.048 286.221 521.344 300.632 547.287V504.048Z" fill="black"/>
<path opacity="0.1" d="M370.4 503.756L305.761 525.324L305.989 526.008L370.628 504.439L370.4 503.756Z" fill="black"/>
<path opacity="0.1" d="M383.347 501.609L305.741 531.125L305.997 531.798L383.603 502.283L383.347 501.609Z" fill="black"/>
<path opacity="0.1" d="M395.237 501.506L306.174 537.966L306.447 538.633L395.51 502.173L395.237 501.506Z" fill="black"/>
<path opacity="0.1" d="M408.167 498.384L307.213 543.994L307.51 544.651L408.463 499.041L408.167 498.384Z" fill="black"/>
<path opacity="0.1" d="M419.03 498.399L308.012 546.931L308.301 547.591L419.318 499.059L419.03 498.399Z" fill="black"/>
<path opacity="0.1" d="M442.79 494.363L309.687 551.86L309.972 552.521L443.075 495.025L442.79 494.363Z" fill="black"/>
<path opacity="0.3" d="M109.688 442.433L236.504 415.769L313.76 430.542L209.843 464.052L109.688 442.433Z" fill="#FFFAF5"/>
<path d="M462.322 444.112C462.322 444.112 468.879 446.757 465.031 450.843C461.183 454.929 313.739 497.606 313.739 497.606L462.322 444.112Z" fill="#6C63FF"/>
<path d="M526.011 382.49C526.011 382.49 509.683 402.423 522.653 432.575L392.235 489.145L379.719 491.783L373.955 466.56L377.867 434.737V417.319L526.011 382.49Z" fill="#D5D6DB"/>
<path d="M114.177 369.597L294.68 336.693L533.872 374.801L385.31 428.294L114.177 369.597Z" fill="#3A3768"/>
<path d="M114.149 369.597C114.149 369.597 97.2591 401.587 116.714 431.133L384.395 489.145C384.395 489.145 367.787 463.642 385.282 428.287L114.149 369.597Z" fill="#3A3768"/>
<path opacity="0.1" d="M114.149 369.597C114.149 369.597 97.2591 401.587 116.714 431.133L384.395 489.145C384.395 489.145 367.787 463.642 385.282 428.287L300.632 409.961L114.149 369.597Z" fill="black"/>
<path opacity="0.1" d="M122.147 380.688C122.147 380.688 112.506 404.087 122.147 419.243V380.688Z" fill="black"/>
<path d="M384.424 489.145L533.872 425.368C533.872 425.368 542.223 427.17 536.819 433.295C531.415 439.421 387.306 495.271 387.306 495.271L116.742 431.133L384.424 489.145Z" fill="#3A3768"/>
<path opacity="0.1" d="M384.424 489.145L533.872 425.368C533.872 425.368 542.223 427.17 536.819 433.295C531.415 439.421 387.306 495.271 387.306 495.271L116.742 431.133L384.424 489.145Z" fill="black"/>
<path opacity="0.1" d="M372.175 434.737C372.175 434.737 357.764 452.032 372.175 477.975V434.737Z" fill="black"/>
<path opacity="0.1" d="M441.948 434.452L377.309 456.02L377.537 456.704L442.176 435.135L441.948 434.452Z" fill="black"/>
<path opacity="0.1" d="M454.904 432.302L377.298 461.817L377.554 462.491L455.16 432.976L454.904 432.302Z" fill="black"/>
<path opacity="0.1" d="M466.784 432.189L377.721 468.649L377.994 469.316L467.057 432.856L466.784 432.189Z" fill="black"/>
<path opacity="0.1" d="M479.722 429.068L378.769 474.678L379.065 475.335L480.019 429.725L479.722 429.068Z" fill="black"/>
<path opacity="0.1" d="M490.574 429.074L379.557 477.606L379.846 478.266L490.863 429.734L490.574 429.074Z" fill="black"/>
<path opacity="0.1" d="M514.34 425.038L381.237 482.535L381.523 483.196L514.626 425.7L514.34 425.038Z" fill="black"/>
<path opacity="0.45" d="M181.238 373.121L308.054 346.458L385.31 361.231L281.394 394.741L181.238 373.121Z" fill="#FFFAF5"/>
<path d="M533.872 374.8C533.872 374.8 540.421 377.445 536.581 381.524C532.74 385.603 385.31 428.287 385.31 428.287L533.872 374.8Z" fill="#3A3768"/>
<path d="M532.784 303.197C532.784 303.197 516.449 338.992 529.419 369.136L399 409.853L386.513 412.497L380.749 387.275L384.604 355.444V338.026L532.784 303.197Z" fill="#D5D6DB"/>
<path d="M120.972 290.312L301.482 257.4L540.673 295.508L392.105 349.001L120.972 290.312Z" fill="#6C63FF"/>
<path d="M120.972 290.305C120.972 290.305 104.061 322.294 123.515 351.841L391.197 409.853C391.197 409.853 374.581 384.349 392.076 349.001L120.972 290.305Z" fill="#6C63FF"/>
<path opacity="0.1" d="M120.972 290.305C120.972 290.305 104.061 322.294 123.515 351.841L391.197 409.853C391.197 409.853 374.581 384.349 392.076 349.001L120.972 290.305Z" fill="black"/>
<path opacity="0.1" d="M128.948 301.396C128.948 301.396 119.3 324.802 128.948 339.95V301.396Z" fill="black"/>
<path d="M391.226 409.853L540.667 361.93C540.667 361.93 549.025 363.731 543.621 369.857C538.217 375.982 394.108 415.978 394.108 415.978L123.544 351.841L391.226 409.853Z" fill="#6C63FF"/>
<path opacity="0.1" d="M391.226 409.853L540.667 361.93C540.667 361.93 549.025 363.731 543.621 369.857C538.217 375.982 394.108 415.978 394.108 415.978L123.544 351.841L391.226 409.853Z" fill="black"/>
<path opacity="0.1" d="M378.977 355.444C378.977 355.444 364.566 372.739 378.977 398.683V355.444Z" fill="black"/>
<path opacity="0.1" d="M448.753 355.158L384.113 376.726L384.341 377.41L448.981 355.841L448.753 355.158Z" fill="black"/>
<path opacity="0.1" d="M461.703 353.012L384.097 382.527L384.353 383.2L461.959 353.685L461.703 353.012Z" fill="black"/>
<path opacity="0.1" d="M473.576 352.902L384.513 389.362L384.786 390.029L473.849 353.569L473.576 352.902Z" fill="black"/>
<path opacity="0.1" d="M486.525 349.775L385.571 395.385L385.867 396.041L486.821 350.431L486.525 349.775Z" fill="black"/>
<path opacity="0.1" d="M497.381 349.787L386.363 398.319L386.652 398.98L497.669 350.448L497.381 349.787Z" fill="black"/>
<path opacity="0.1" d="M521.144 345.756L388.041 403.253L388.326 403.915L521.429 346.418L521.144 345.756Z" fill="black"/>
<path opacity="0.3" d="M188.033 293.829L314.848 267.165L392.105 281.938L288.188 315.448L188.033 293.829Z" fill="#FFFAF5"/>
<path d="M540.666 295.508C540.666 295.508 547.223 298.153 543.376 302.239C539.528 306.325 392.105 349.001 392.105 349.001L540.666 295.508Z" fill="#6C63FF"/>
<path d="M223.671 76.7487C223.671 76.7487 196.29 75.0984 199.489 94.3109C199.489 94.3109 198.848 97.7051 201.925 99.2473C201.925 99.2473 201.975 97.806 204.735 98.3032C205.72 98.4724 206.722 98.5208 207.718 98.4474C209.061 98.3554 210.338 97.8293 211.357 96.9484C211.357 96.9484 219.059 93.7632 222.057 81.1663C222.057 81.1663 224.276 78.4206 224.219 77.7144L219.578 79.689C219.578 79.689 221.156 83.0255 219.917 85.8C219.917 85.8 219.766 79.8115 218.872 79.9484C218.692 79.9484 216.473 81.1086 216.473 81.1086C216.473 81.1086 219.189 86.9242 217.136 91.1472C217.136 91.1472 217.914 83.984 215.622 81.5266L212.366 83.4291C212.366 83.4291 215.543 89.4321 213.389 94.3325C213.389 94.3325 213.944 86.8161 211.681 83.8903L208.727 86.1964C208.727 86.1964 211.717 92.1129 209.894 96.1773C209.894 96.1773 209.656 87.4287 208.093 86.7657C208.093 86.7657 205.506 89.0429 205.117 89.9798C205.117 89.9798 207.163 94.3036 205.888 96.5449C205.888 96.5449 205.117 90.7148 204.447 90.686C204.447 90.686 201.874 94.5487 201.608 97.1718C201.732 94.7263 202.495 92.3561 203.82 90.2969C202.337 90.5774 200.97 91.2864 199.886 92.3363C199.886 92.3363 200.282 89.605 204.461 89.3672C204.461 89.3672 206.587 86.4342 207.156 86.2612C207.156 86.2612 202.999 85.9081 200.484 87.0251C200.484 87.0251 202.703 84.4524 207.913 85.5838L210.795 83.2057C210.795 83.2057 205.333 82.4851 203.013 83.285C203.013 83.285 205.686 81.0077 211.58 82.6652L214.758 80.7699C214.758 80.7699 210.096 79.7682 207.322 80.1286C207.322 80.1286 210.247 78.5503 215.687 80.2583L217.95 79.2422C217.95 79.2422 214.542 78.572 213.54 78.4639C212.539 78.3558 212.488 78.0819 212.488 78.0819C214.651 77.7266 216.871 77.976 218.901 78.8026C218.901 78.8026 223.765 77.0514 223.671 76.7487Z" fill="#6C63FF"/>
<path opacity="0.1" d="M608.873 155.717C608.873 155.717 581.492 154.067 584.692 173.279C584.692 173.279 584.05 176.673 587.127 178.216C587.127 178.216 587.178 176.774 589.937 177.272C590.922 177.437 591.924 177.485 592.92 177.416C594.251 177.318 595.515 176.792 596.523 175.917C596.523 175.917 604.233 172.731 607.223 160.135C607.223 160.135 609.442 157.389 609.385 156.683L604.759 158.657C604.759 158.657 606.337 161.994 605.097 164.768C605.097 164.768 604.946 158.78 604.06 158.917C603.88 158.917 601.653 160.077 601.653 160.077C601.653 160.077 604.37 165.893 602.323 170.116C602.323 170.116 603.102 162.952 600.803 160.495L597.546 162.397C597.546 162.397 600.724 168.4 598.569 173.301C598.569 173.301 599.124 165.784 596.862 162.859L593.915 165.165C593.915 165.165 596.898 171.081 595.075 175.146C595.075 175.146 594.837 166.397 593.273 165.734C593.273 165.734 590.694 168.011 590.297 168.948C590.297 168.948 592.344 173.272 591.076 175.513C591.076 175.513 590.297 169.683 589.635 169.654C589.635 169.654 587.062 173.517 586.796 176.14C586.92 173.694 587.686 171.323 589.015 169.265C587.53 169.546 586.161 170.255 585.074 171.305C585.074 171.305 585.477 168.573 589.649 168.336C589.649 168.336 591.775 165.403 592.344 165.222C592.344 165.222 588.194 164.876 585.672 165.993C585.672 165.993 587.891 163.421 593.1 164.552L595.983 162.174C595.983 162.174 590.514 161.453 588.201 162.253C588.201 162.253 590.867 159.976 596.768 161.634L599.938 159.738C599.938 159.738 595.276 158.737 592.502 159.097C592.502 159.097 595.428 157.519 600.868 159.227L603.138 158.21C603.138 158.21 599.722 157.54 598.721 157.432C597.719 157.324 597.669 157.05 597.669 157.05C599.832 156.69 602.052 156.94 604.081 157.771C604.081 157.771 608.96 156.02 608.873 155.717Z" fill="#6C63FF"/>
<path opacity="0.1" d="M269.786 195.439C269.786 195.439 257.854 170.699 242.665 182.893C242.665 182.893 239.386 183.988 239.545 187.426C239.545 187.426 240.806 186.77 241.706 189.422C242.043 190.359 242.488 191.254 243.032 192.088C243.769 193.219 244.854 194.079 246.123 194.538C246.123 194.538 252.659 199.713 265.117 196.181C265.117 196.181 268.597 196.779 269.166 196.362L265.189 193.284C265.189 193.284 263.027 196.289 260.015 196.556C260.015 196.556 265.174 193.508 264.62 192.802C264.504 192.657 262.458 191.267 262.458 191.267C262.458 191.267 258.704 196.477 254.02 196.743C254.02 196.743 260.649 193.933 261.672 190.726L258.43 188.809C258.43 188.809 254.734 194.517 249.409 195.021C249.409 195.021 256.24 191.843 257.688 188.442L254.244 187C254.244 187 250.533 192.492 246.094 192.888C246.094 192.888 253.617 188.413 253.429 186.719C253.429 186.719 250.18 185.581 249.171 185.689C249.171 185.689 246.419 189.573 243.825 189.573C243.825 189.573 248.53 186.049 248.242 185.48C248.242 185.48 243.616 185.119 241.18 186.2C243.375 185.109 245.817 184.613 248.263 184.759C247.293 183.602 246.006 182.753 244.56 182.316C244.56 182.316 247.139 181.336 249.38 184.86C249.38 184.86 252.983 185.285 253.408 185.696C253.408 185.696 251.686 181.905 249.488 180.255C249.488 180.255 252.817 180.925 254.337 186.02L257.832 187.404C257.832 187.404 255.822 182.273 253.97 180.651C253.97 180.651 257.256 181.869 258.689 187.858L261.889 189.703C261.889 189.703 260.498 185.141 258.826 182.9C258.826 182.9 261.629 184.687 262.789 190.265L264.785 191.749C264.785 191.749 263.704 188.442 263.344 187.519C262.984 186.597 263.164 186.409 263.164 186.409C264.535 188.12 265.403 190.179 265.672 192.355C265.672 192.355 269.526 195.655 269.786 195.439Z" fill="#6C63FF"/>
<path opacity="0.1" d="M546.316 120.766C546.316 120.766 534.391 96.026 519.194 108.219C519.194 108.219 515.923 109.315 516.074 112.752C516.074 112.752 517.343 112.104 518.236 114.748C518.572 115.69 519.019 116.587 519.569 117.422C520.304 118.55 521.386 119.408 522.653 119.865C522.653 119.865 529.195 125.039 541.646 121.515C541.646 121.515 545.127 122.106 545.703 121.688L541.747 118.604C541.747 118.604 539.586 121.616 536.581 121.883C536.581 121.883 541.733 118.827 541.178 118.121C541.063 117.977 539.017 116.586 539.017 116.586C539.017 116.586 535.27 121.796 530.579 122.063C530.579 122.063 537.215 119.252 538.238 116.053L534.945 114.15C534.945 114.15 531.256 119.851 525.924 120.362C525.924 120.362 532.755 117.177 534.21 113.776L530.759 112.334C530.759 112.334 527.048 117.833 522.617 118.222C522.617 118.222 530.132 113.747 529.945 112.06C529.945 112.06 526.702 110.915 525.694 111.03C525.694 111.03 522.941 114.907 520.34 114.907C520.34 114.907 525.052 111.383 524.764 110.814C524.764 110.814 520.138 110.453 517.696 111.534C519.89 110.443 522.332 109.946 524.779 110.093C523.812 108.935 522.527 108.086 521.082 107.65C521.082 107.65 523.662 106.67 525.903 110.194C525.903 110.194 529.505 110.626 529.93 111.037C529.93 111.037 528.208 107.239 526.004 105.589C526.004 105.589 529.332 106.266 530.853 111.39L534.355 112.774C534.355 112.774 532.344 107.636 530.492 106.014C530.492 106.014 533.778 107.232 535.205 113.221L538.411 115.065C538.411 115.065 537.013 110.511 535.342 108.263C535.342 108.263 538.152 110.05 539.305 115.628L541.301 117.112C541.301 117.112 540.227 113.804 539.86 112.882C539.492 111.959 539.679 111.779 539.679 111.779C541.046 113.492 541.912 115.55 542.18 117.725C542.18 117.725 546.092 120.996 546.316 120.766Z" fill="#6C63FF"/>
<path opacity="0.1" d="M584.425 243.139C584.425 243.139 572.5 218.392 557.282 230.585C557.282 230.585 554.011 231.68 554.162 235.118C554.162 235.118 555.43 234.469 556.324 237.114C556.657 238.055 557.103 238.953 557.65 239.788C558.384 240.916 559.467 241.774 560.734 242.231C560.734 242.231 567.276 247.412 579.734 243.881C579.734 243.881 583.207 244.479 583.784 244.054L579.807 240.977C579.807 240.977 577.645 243.989 574.633 244.256C574.633 244.256 579.785 241.2 579.23 240.494C579.115 240.35 577.068 238.959 577.068 238.959C577.068 238.959 573.322 244.169 568.631 244.443C568.631 244.443 575.267 241.625 576.29 238.426L573.041 236.509C573.041 236.509 569.351 242.216 564.019 242.721C564.019 242.721 570.85 239.535 572.306 236.134L568.854 234.693C568.854 234.693 565.143 240.184 560.712 240.58C560.712 240.58 568.235 236.105 568.047 234.412C568.047 234.412 564.798 233.266 563.789 233.381C563.789 233.381 561.036 237.258 558.435 237.258C558.435 237.258 563.148 233.734 562.859 233.165C562.859 233.165 558.233 232.805 555.791 233.885C557.988 232.795 560.432 232.298 562.881 232.444C561.913 231.284 560.625 230.435 559.177 230.001C559.177 230.001 561.757 229.014 563.998 232.545C563.998 232.545 567.6 232.97 568.026 233.381C568.026 233.381 566.303 229.59 564.106 227.933C564.106 227.933 567.435 228.61 568.955 233.734L572.45 235.118C572.45 235.118 570.439 229.98 568.588 228.365C568.588 228.365 571.873 229.576 573.3 235.572L576.506 237.409C576.506 237.409 575.109 232.855 573.437 230.607C573.437 230.607 576.247 232.394 577.407 237.979L579.403 239.42C579.403 239.42 578.322 236.112 577.962 235.19C577.602 234.267 577.782 234.087 577.782 234.087C579.152 235.798 580.018 237.857 580.282 240.033C580.282 240.033 584.202 243.355 584.425 243.139Z" fill="#6C63FF"/>
<path opacity="0.1" d="M145.514 565.101C154.662 565.101 162.079 564.272 162.079 563.249C162.079 562.226 154.662 561.397 145.514 561.397C136.365 561.397 128.948 562.226 128.948 563.249C128.948 564.272 136.365 565.101 145.514 565.101Z" fill="#6C63FF"/>
<path opacity="0.1" d="M36.9207 533.624C46.0695 533.624 53.486 532.794 53.486 531.771C53.486 530.749 46.0695 529.919 36.9207 529.919C27.772 529.919 20.3555 530.749 20.3555 531.771C20.3555 532.794 27.772 533.624 36.9207 533.624Z" fill="#6C63FF"/>
<path opacity="0.1" d="M228.289 586.007C237.438 586.007 244.855 585.178 244.855 584.155C244.855 583.132 237.438 582.303 228.289 582.303C219.141 582.303 211.724 583.132 211.724 584.155C211.724 585.178 219.141 586.007 228.289 586.007Z" fill="#6C63FF"/>
<path opacity="0.1" d="M652.473 540.47C661.622 540.47 669.038 539.64 669.038 538.618C669.038 537.595 661.622 536.766 652.473 536.766C643.324 536.766 635.908 537.595 635.908 538.618C635.908 539.64 643.324 540.47 652.473 540.47Z" fill="#6C63FF"/>
<path opacity="0.1" d="M514.626 531.483C523.775 531.483 531.191 530.654 531.191 529.631C531.191 528.608 523.775 527.779 514.626 527.779C505.477 527.779 498.061 528.608 498.061 529.631C498.061 530.654 505.477 531.483 514.626 531.483Z" fill="#6C63FF"/>
<path opacity="0.1" d="M425.452 575.313C436.272 575.313 445.043 573.806 445.043 571.947C445.043 570.089 436.272 568.582 425.452 568.582C414.632 568.582 405.86 570.089 405.86 571.947C405.86 573.806 414.632 575.313 425.452 575.313Z" fill="#6C63FF"/>
<path d="M434.192 538.12C434.192 538.12 406.912 552.216 421.006 568.82C421.006 568.82 422.332 572.423 426.165 572.171C426.165 572.171 425.401 570.773 428.327 569.656C429.368 569.253 430.357 568.728 431.274 568.092C432.512 567.235 433.438 565.998 433.911 564.568C433.911 564.568 439.488 557.102 435.165 543.287C435.165 543.287 435.727 539.381 435.237 538.747L431.922 543.295C431.922 543.295 435.345 545.593 435.741 548.973C435.741 548.973 432.138 543.302 431.418 543.929C431.259 544.058 429.775 546.415 429.775 546.415C429.775 546.415 435.712 550.443 436.152 555.675C436.152 555.675 432.808 548.346 429.198 547.301L427.131 550.991C427.131 550.991 433.615 554.94 434.336 560.878C434.336 560.878 430.567 553.348 426.72 551.827L425.199 555.726C425.199 555.726 431.454 559.704 432.03 564.647C432.03 564.647 426.799 556.382 424.918 556.641C424.918 556.641 423.737 560.302 423.895 561.433C423.895 561.433 428.312 564.388 428.391 567.292C428.391 567.292 424.313 562.139 423.686 562.478C423.686 562.478 423.427 567.66 424.681 570.355C424.681 570.355 422.519 566.507 422.872 562.478C421.608 563.596 420.699 565.059 420.257 566.687C420.257 566.687 419.082 563.84 422.951 561.217C422.951 561.217 423.319 557.189 423.766 556.691C423.766 556.691 419.579 558.738 417.799 561.246C417.799 561.246 418.455 557.506 424.133 555.646L425.574 551.697C425.574 551.697 419.896 554.104 418.145 556.223C418.145 556.223 419.406 552.512 426.021 550.732L427.981 547.128C427.981 547.128 422.937 548.829 420.473 550.732C420.473 550.732 422.382 547.539 428.586 546.069L430.178 543.799C430.178 543.799 426.518 545.103 425.495 545.572C424.472 546.04 424.27 545.81 424.27 545.81C426.14 544.227 428.412 543.195 430.834 542.826C430.834 542.826 434.444 538.365 434.192 538.12Z" fill="#6C63FF"/>
<path d="M515.159 271.892C510.447 259.086 484.507 257.883 473.252 261.147C465.254 263.475 448.394 266.098 439.387 267.417L438.803 266.862C439.971 266.516 439.999 265.666 439.855 264.405C439.771 262.743 439.795 261.077 439.927 259.418C445.447 261.133 450.361 257.076 450.361 257.076C456.846 254.193 455.102 241.856 456.341 238.483C457.271 235.961 458.272 221.101 458.719 213.693H458.813L458.863 211.207C458.928 210.133 458.957 209.506 458.957 209.506C458.957 209.506 459.591 191.389 460.83 187.721C461.983 184.348 462.92 167.355 463.064 164.66C463.064 164.43 463.064 164.307 463.064 164.307L462.97 162.736C463.035 161.59 463.064 160.315 463.057 158.974C463.057 152.813 462.415 145.051 462.336 143.798C462.336 143.617 462.336 143.401 462.336 143.142C462.387 140.511 462.055 127.338 450.851 122.358C446.722 120.513 441.757 118.315 436.951 116.175C435.712 105.474 432.88 94.8297 433.125 84.0488C433.125 82.4274 433.269 80.8059 433.428 79.1917C433.428 79.6601 433.378 80.1357 433.37 80.6329C433.37 81.6779 433.37 82.73 433.37 83.775C433.795 70.2917 438.89 56.7363 438.414 43.5413C438.371 44.8313 438.277 46.1285 438.155 47.4256C438.403 42.9625 437.936 38.4884 436.771 34.1729C436.339 32.6524 435.755 31.0814 434.509 30.0653C433.331 29.2469 431.979 28.7118 430.56 28.5015C427.151 27.6286 423.687 26.9834 420.192 26.5701C419.66 24.9442 418.872 23.4138 417.857 22.0373C410.551 12.0059 399.728 2.57985 386.931 0.417915C380.511 -0.663053 373.126 0.237753 368.759 4.82826C368.303 5.23153 367.875 5.66489 367.477 6.12542C365.128 8.92873 364.119 12.6112 361.712 15.4073C361.554 15.5947 361.374 15.7677 361.201 15.9478C356.488 20.1636 349.146 21.0428 343.908 24.8262C342.985 25.5054 342.12 26.2598 341.321 27.0818C339.21 29.1738 337.317 31.4748 335.672 33.9495C333.316 37.2645 330.895 40.7164 330.145 44.6727C328.639 52.5998 334.036 60.1162 335.038 68.0937C337.272 85.9441 317.521 101.784 321.261 119.396C322.259 123.723 324.462 127.679 327.616 130.804C319.914 137.78 313.357 144.547 313.357 144.547V144.951H312.139L312.261 146.392H312.139L312.809 154.211L312.139 165.597C312.139 165.597 312.139 165.72 312.139 165.95V166.008V166.318C312.139 166.318 312.139 166.44 312.139 166.671H312.182C312.406 170.843 313.292 185.847 314.344 189.011C315.583 192.679 316.21 210.796 316.21 210.796C316.21 210.796 317.579 236.4 318.833 239.787C320.087 243.174 318.307 255.476 324.813 258.38C326.717 259.84 328.97 260.775 331.349 261.09C331.017 263.785 331.226 265.738 332.3 266.35C332.759 266.621 333.28 266.769 333.813 266.783C333.371 267.438 332.979 268.124 332.638 268.837C330.056 268.567 327.518 267.969 325.087 267.057C318.098 264.174 294.904 257.688 288.167 262.25C281.429 266.812 265.217 270.948 272.704 289.31C280.19 307.672 283.678 308.133 283.678 308.133C285.982 309.807 288.003 311.838 289.665 314.151C291.913 317.531 312.86 325.263 318.098 325.263C320.324 325.229 322.551 325.34 324.763 325.595C324.763 325.595 319.078 330.582 319.834 333.479C320.591 336.376 318.105 359.566 318.105 359.566C318.105 359.566 323.869 365.374 326.334 357.757L326.42 357.872C326.881 358.499 329.374 361.332 334.065 357.757C335.985 356.3 338.024 355.008 340.161 353.894L362.872 350.68C365.24 350.532 367.614 350.516 369.984 350.63C373.587 350.925 377.125 348.792 379.351 347.142C384.056 348.929 389.345 350.882 391.86 351.596C396.961 353.037 420.408 359.328 425.891 357.361C427.031 356.908 428.044 356.186 428.845 355.257L434.076 355.422L431.627 355.912C431.627 355.912 436.397 355.992 442.881 356.078L442.608 356.237L450.743 356.165C462.646 356.273 476.019 356.309 477.777 355.912C480.53 355.3 494.833 355.732 499.048 355.912H500.222C500.222 355.912 515.937 352.777 509.452 336.83C504.466 324.579 489.14 321.019 482.338 320.039C484.255 319.657 485.905 319.361 487 319.188C491.749 318.468 500.972 314.144 501.721 312.666C502.47 311.189 510.202 306.901 512.198 304.458C514.194 302.015 519.893 284.698 515.159 271.892ZM384.993 307.73L384.222 307.982L383.703 308.155L382.709 309.135C381.916 308.602 381.066 308.04 380.18 307.463C381.743 307.557 383.35 307.651 384.993 307.73Z" fill="url(#paint0_linear)"/>
<path d="M430.935 231.745C430.935 231.745 441.959 260.571 448.228 257.688C454.497 254.806 452.796 242.555 453.992 239.197C455.189 235.838 456.514 210.371 456.514 210.371C456.514 210.371 457.12 192.355 458.316 188.708C459.425 185.357 460.326 168.458 460.477 165.799C460.477 165.568 460.477 165.446 460.477 165.446L459.288 144.547L452.558 142.868L436.952 148.633L434.79 160.978L433.947 165.799L433.587 167.853L430.935 231.745Z" fill="#BE6F72"/>
<path opacity="0.1" d="M434.566 226.917C434.566 226.917 445.086 235.529 448.257 236.285C451.427 237.042 453.373 243.758 453.373 243.758" fill="black"/>
<path d="M344.722 233.006C344.722 233.006 333.698 261.832 327.429 258.95C321.16 256.067 322.861 243.816 321.665 240.458C320.468 237.1 319.143 211.632 319.143 211.632C319.143 211.632 318.537 193.616 317.341 189.969C316.232 186.618 315.331 169.719 315.18 167.06C315.18 166.829 315.18 166.707 315.18 166.707L316.376 145.808L323.106 144.129L338.713 149.894L340.874 162.239L341.717 167.06L342.078 169.114L344.722 233.006Z" fill="#BE6F72"/>
<path d="M416.51 78.7449H391.903V117.105H416.51V78.7449Z" fill="#3E373A"/>
<path opacity="0.1" d="M416.51 78.7449H391.903V117.105H416.51V78.7449Z" fill="black"/>
<path d="M340.399 261.717C340.399 261.717 331.99 270.963 335.11 272.642C338.23 274.321 358.413 305.791 358.413 305.791C358.413 305.791 424.702 313.956 437.204 301.705C449.705 289.454 449.453 267.568 449.453 267.568C449.453 267.568 439.409 269.73 438.314 268.556C437.218 267.381 431.202 261.717 431.202 261.717C431.202 261.717 346.163 256.557 340.399 261.717Z" fill="#4B4B5B"/>
<path opacity="0.02" d="M340.399 261.717C340.399 261.717 331.99 270.963 335.11 272.642C338.23 274.321 358.413 305.791 358.413 305.791C358.413 305.791 424.702 313.956 437.204 301.705C449.705 289.454 449.453 267.568 449.453 267.568C449.453 267.568 439.409 269.73 438.314 268.556C437.218 267.381 431.202 261.717 431.202 261.717C431.202 261.717 346.163 256.557 340.399 261.717Z" fill="black"/>
<path d="M459.735 144.85L438.119 162.145L431.584 162.621L429.184 162.794L388.884 165.749L347.093 162.693L340.874 162.239L332.948 161.662L316.376 145.808C316.376 145.808 328.106 133.24 338.381 124.758C342.431 121.407 346.257 118.698 349.045 117.631L349.521 117.465C351.275 116.781 352.841 115.689 354.089 114.28C362.203 105.913 369.703 85.2668 369.703 85.2668C369.703 85.2668 405.493 66.7751 401.169 91.032C396.846 115.289 417.259 109.293 417.259 109.293L423.989 112.363L426.648 113.581L433.428 116.687L448.725 123.706C460.73 129.233 459.735 144.85 459.735 144.85Z" fill="#BE6F72"/>
<path opacity="0.1" d="M387.205 105.02C404.981 105.02 419.392 90.6072 419.392 72.8284C419.392 55.0497 404.981 40.6372 387.205 40.6372C369.429 40.6372 355.019 55.0497 355.019 72.8284C355.019 90.6072 369.429 105.02 387.205 105.02Z" fill="black"/>
<path opacity="0.1" d="M459.785 167.781H315.18C315.18 167.55 315.18 167.428 315.18 167.428L316.376 146.529C316.376 146.529 328.106 133.961 338.381 125.479L429.17 121.876L433.392 117.422L448.689 124.441C460.7 129.961 459.735 145.578 459.735 145.578C459.735 145.578 461.378 163.673 459.785 167.781Z" fill="black"/>
<path d="M459.785 167.06H315.18C315.18 166.829 315.18 166.707 315.18 166.707L316.376 145.808C316.376 145.808 328.106 133.24 338.381 124.758L429.17 121.155L433.392 116.701L448.689 123.72C460.7 129.241 459.735 144.857 459.735 144.857C459.735 144.857 461.378 162.952 459.785 167.06Z" fill="#E7C7CA"/>
<path opacity="0.1" d="M364.025 108.457C364.025 108.457 386.838 137.528 417.223 107.859C447.608 78.19 420.588 174.036 420.588 174.036L355.019 181.819L364.025 108.457Z" fill="black"/>
<path d="M364.025 109.898C364.025 109.898 386.838 138.969 417.223 109.3C447.608 79.6313 420.588 175.477 420.588 175.477L355.019 183.26L364.025 109.898Z" fill="#E7C7CA"/>
<path opacity="0.1" d="M426.612 115.001L429.026 151.818L431.612 164.069L433.587 173.438C433.587 173.438 438.631 245.502 437.189 249.105C435.748 252.709 437.91 255.591 438.213 257.508C438.515 259.425 437.91 264.239 438.148 266.401C438.386 268.563 438.148 269.521 432.628 268.75C427.109 267.979 419.414 266.639 419.414 266.639C419.414 266.639 399.959 268.08 393.236 265.68C386.514 263.281 373.782 263.273 373.782 263.273C373.782 263.273 354.565 263.756 348.325 263.036C342.085 262.315 338.713 270.725 334.635 268.318C330.556 265.911 339.433 242.62 342.316 235.889C345.198 229.158 338.475 212.108 338.475 212.108L347.122 164.134L349.045 153.26V119.072L349.521 118.906C351.275 118.222 352.841 117.131 354.089 115.721L356.251 150.125L423.982 152.532V113.812" fill="black"/>
<path d="M426.612 113.559L429.026 150.377L431.612 162.628L433.587 171.996C433.587 171.996 438.631 244.061 437.189 247.664C435.748 251.267 437.91 254.15 438.213 256.067C438.515 257.984 437.91 262.798 438.148 264.96C438.386 267.122 438.148 268.08 432.628 267.309C427.109 266.538 419.414 265.198 419.414 265.198C419.414 265.198 399.959 266.639 393.236 264.239C386.514 261.839 373.782 261.832 373.782 261.832C373.782 261.832 354.565 262.315 348.325 261.594C342.085 260.874 338.713 269.284 334.635 266.877C330.556 264.47 339.433 241.178 342.316 234.448C345.198 227.717 338.475 210.666 338.475 210.666L347.122 162.693L349.045 151.818V117.631L349.521 117.465C351.275 116.781 352.841 115.689 354.089 114.28L356.251 148.684L423.982 151.091V112.37" fill="#E7C7CA"/>
<path opacity="0.1" d="M434.401 36.7241C433.99 35.2179 433.421 33.6541 432.239 32.6452C431.111 31.8349 429.808 31.3016 428.435 31.0886C425.148 30.2243 421.807 29.5838 418.434 29.1717C417.952 27.5715 417.222 26.0566 416.272 24.6821C409.211 14.7083 398.763 5.30393 386.47 3.17802C380.036 2.06102 372.578 3.06272 368.457 8.13606C366.194 10.925 365.222 14.6219 362.938 17.3603C358.535 22.6787 350.587 23.3345 345.039 27.4494C342.078 29.6113 339.931 32.7461 337.834 35.7872C335.564 39.0806 333.23 42.5108 332.509 46.4456C331.068 54.3078 336.263 61.8025 337.221 69.7368C339.383 87.4863 320.361 103.232 323.956 120.744C326.053 130.956 335.485 138.148 345.241 141.794C348.678 143.084 352.605 144.367 354.212 147.667C354.932 149.109 355.055 150.773 355.732 152.229C358.009 157.086 365.495 157.274 369.516 153.735C373.537 150.197 374.805 144.475 375.28 139.135C377.211 115.815 367.873 92.7759 368.961 69.3981C369.286 62.3286 371.274 54.3078 377.608 51.1081C386.132 46.7843 396.385 53.9907 405.767 52.6143C410.206 63.4178 411.148 75.3411 408.461 86.708C406.97 92.9272 404.39 98.959 404.203 105.373C403.922 115.137 409.189 124.059 413.743 132.692C414.72 134.307 415.374 136.096 415.667 137.96C415.739 139.852 415.387 141.735 414.637 143.473C412.064 150.399 407.626 156.827 407.121 164.199C406.973 165.06 407.167 165.944 407.662 166.664C408.169 167.144 408.824 167.439 409.521 167.5C417.302 168.833 424.032 161.936 427.83 155.011C432.063 147.362 434.53 138.861 435.049 130.134C435.835 115.462 430.575 101.027 430.899 86.3405C431.274 69.6431 438.818 52.8305 434.401 36.7241Z" fill="black"/>
<path d="M435.122 36.0035C434.711 34.4973 434.142 32.9335 432.96 31.9246C431.832 31.1143 430.528 30.581 429.156 30.368C425.869 29.5037 422.528 28.8632 419.154 28.4511C418.673 26.8509 417.943 25.3361 416.993 23.9615C409.931 13.9878 399.484 4.58335 387.191 2.45744C380.757 1.34044 373.299 2.34214 369.178 7.41548C366.915 10.2044 365.942 13.9013 363.658 16.6397C359.256 21.9581 351.308 22.6139 345.76 26.7288C342.798 28.8907 340.651 32.0255 338.554 35.0666C336.285 38.36 333.95 41.7903 333.23 45.725C331.789 53.5872 336.984 61.0819 337.942 69.0162C340.104 86.7657 321.081 102.512 324.677 120.024C326.774 130.235 336.206 137.427 345.962 141.074C349.399 142.364 353.326 143.646 354.932 146.947C355.653 148.388 355.775 150.053 356.453 151.509C358.73 156.366 366.216 156.553 370.237 153.015C374.257 149.476 375.526 143.754 376.001 138.414C377.932 115.094 368.594 92.0553 369.682 68.6775C370.006 61.608 371.995 53.5872 378.328 50.3876C386.853 46.0637 397.106 53.2701 406.487 51.8937C410.927 62.6972 411.869 74.6205 409.182 85.9874C407.691 92.2066 405.111 98.2384 404.924 104.652C404.643 114.417 409.91 123.338 414.464 131.972C415.441 133.586 416.094 135.376 416.388 137.24C416.459 139.131 416.107 141.015 415.357 142.753C412.785 149.678 408.346 156.106 407.842 163.478C407.694 164.339 407.888 165.223 408.382 165.943C408.89 166.423 409.545 166.718 410.241 166.779C418.023 168.112 424.753 161.216 428.55 154.29C432.784 146.641 435.251 138.141 435.77 129.414C436.556 114.741 431.296 100.307 431.62 85.6199C431.994 68.9226 439.539 52.1099 435.122 36.0035Z" fill="#3E373A"/>
<path d="M419.205 355.084L447.789 355.999L443.689 334.797L421.791 336.88L419.205 355.084Z" fill="#C3C7D9"/>
<path d="M507.774 304.833C505.85 307.233 498.407 311.557 497.686 312.998C496.966 314.439 488.081 318.763 483.513 319.484C478.945 320.204 464.541 323.332 461.897 325.011C460.002 326.222 444.791 330.056 434.797 332.181C432.09 332.822 429.351 333.315 426.59 333.659C422.267 333.897 374.956 317.805 374.956 317.805L384.078 308.436L384.582 308.263C387.162 307.391 399.08 303.363 405.694 301.446C413.145 299.284 421.791 290.398 421.791 290.398C421.791 290.398 434.516 286.075 436.202 285.592C437.888 285.109 431.879 268.779 431.879 268.779C431.879 268.779 459.497 264.945 470.305 261.695C481.114 258.445 506.095 259.649 510.656 272.382C515.217 285.116 509.726 302.433 507.774 304.833Z" fill="#4B4B5B"/>
<path d="M381.917 345.427C381.917 345.427 376.397 351.192 370.871 350.717C365.344 350.241 346.019 352.158 346.019 352.158C342.517 353.555 339.238 355.456 336.285 357.8C331.767 361.36 329.367 358.521 328.921 357.916L328.841 357.8C326.435 365.374 320.916 359.602 320.916 359.602C320.916 359.602 323.315 336.541 322.58 333.659C321.845 330.776 327.328 325.825 327.328 325.825L333.813 324.175L350.242 319.967L373.782 328.131L381.917 345.427Z" fill="#E7C7CA"/>
<path opacity="0.1" d="M333.784 324.175L328.921 357.916L328.842 357.8C326.435 365.374 320.916 359.602 320.916 359.602C320.916 359.602 323.315 336.541 322.58 333.659C321.845 330.776 327.328 325.825 327.328 325.825L333.784 324.175Z" fill="black"/>
<path opacity="0.1" d="M367.779 228.2C367.779 228.2 380.504 232.523 391.557 228.2H367.779Z" fill="black"/>
<path opacity="0.1" d="M411.221 236.372C411.221 236.372 416.502 239.009 420.588 236.372H411.221Z" fill="black"/>
<path opacity="0.1" d="M411.221 242.627C411.221 242.627 420.105 243.816 421.791 241.416L411.221 242.627Z" fill="black"/>
<path opacity="0.1" d="M408.339 256.067C408.339 256.067 425.027 253.905 429.17 251.022L408.339 256.067Z" fill="black"/>
<path opacity="0.1" d="M357.418 251.022C357.418 251.022 366.785 256.305 373.753 256.067L357.418 251.022Z" fill="black"/>
<path opacity="0.1" d="M434.79 332.182C432.083 332.822 429.343 333.315 426.583 333.659C422.26 333.897 374.949 317.805 374.949 317.805L384.071 308.436L384.575 308.263C386.016 309.279 387.198 310.151 388.041 310.814C392.011 313.942 395.844 309.856 397.286 309.856C398.727 309.856 411.214 320.183 411.214 320.183C411.214 320.183 422.742 322.828 424.666 325.227C426.59 327.627 433.313 327.151 434.509 328.831C434.869 329.349 434.912 330.625 434.79 332.182Z" fill="black"/>
<path d="M346.019 269.759C346.019 269.759 334.361 270.429 327.638 267.597C320.915 264.765 298.579 258.229 292.094 262.819C285.609 267.41 269.995 271.467 277.2 289.728C284.405 307.989 287.77 308.465 287.77 308.465C290 310.137 291.946 312.157 293.535 314.446C295.696 317.812 315.872 325.494 320.915 325.494C325.959 325.494 334.843 325.494 347.33 334.142C359.817 342.789 371.108 343.755 371.108 343.755C371.108 343.755 386.96 350.241 391.896 351.682C396.832 353.123 419.385 359.364 424.674 357.447C429.962 355.53 433.32 343.51 433.32 343.51C433.32 343.51 435.719 332.7 434.516 331.021C433.313 329.342 426.59 329.818 424.674 327.418C422.757 325.018 411.221 322.374 411.221 322.374C411.221 322.374 398.763 312.039 397.322 312.039C395.881 312.039 392.047 316.118 388.077 312.998C380.169 307.139 371.86 301.842 363.211 297.144C354.089 292.337 346.019 269.759 346.019 269.759Z" fill="#4B4B5B"/>
<path opacity="0.1" d="M322.58 276.728C324.656 276.304 326.802 276.365 328.85 276.906C330.898 277.447 332.794 278.454 334.39 279.848C340.154 284.655 359.551 294.304 359.551 294.304" fill="black"/>
<path opacity="0.1" d="M466.703 276.425C466.703 276.425 441.001 280.317 436.202 285.599L466.703 276.425Z" fill="black"/>
<path d="M496.245 355.999H495.114C491.05 355.855 477.28 355.422 474.629 355.999C471.509 356.719 430.193 355.999 430.193 355.999L438.27 354.32C438.27 354.32 435.273 343.813 437.175 342.941C437.175 342.941 426.367 335.821 434.516 331.014C442.665 326.207 451.449 328.232 451.449 328.232L471.905 321.3L475.832 319.967C475.832 319.967 498.889 321.17 505.129 337.024C511.369 352.878 496.245 355.999 496.245 355.999Z" fill="#E7C7CA"/>
<path opacity="0.1" d="M496.245 355.999H495.114C501.822 350.464 516.997 333.616 471.905 321.336L475.832 320.003C475.832 320.003 498.89 321.206 505.13 337.06C511.369 352.914 496.245 355.999 496.245 355.999Z" fill="black"/>
<path d="M453.856 337.32C454.552 337.32 455.117 336.755 455.117 336.059C455.117 335.362 454.552 334.797 453.856 334.797C453.159 334.797 452.595 335.362 452.595 336.059C452.595 336.755 453.159 337.32 453.856 337.32Z" fill="#4B4B5B"/>
<path d="M446.528 339.402C447.224 339.402 447.788 338.838 447.788 338.141C447.788 337.445 447.224 336.88 446.528 336.88C445.831 336.88 445.267 337.445 445.267 338.141C445.267 338.838 445.831 339.402 446.528 339.402Z" fill="#4B4B5B"/>
<g opacity="0.1">
<path opacity="0.1" d="M410.825 71.6394C411.104 63.7128 409.694 55.8176 406.689 48.4778C397.322 49.8759 387.061 42.6478 378.53 46.9717C372.218 50.1713 370.237 58.1921 369.884 65.2616C369.797 67.1281 369.783 68.9946 369.819 70.8611C369.819 70.1981 369.819 69.5279 369.884 68.8649C370.215 61.7953 372.196 53.7745 378.53 50.5749C387.061 46.251 397.307 53.4575 406.689 52.081C409.234 58.2981 410.635 64.924 410.825 71.6394Z" fill="black"/>
<path opacity="0.1" d="M338.237 70.3206C338.361 68.7503 338.329 67.1717 338.144 65.6075C337.38 59.2659 333.914 53.2052 333.287 47.0221C332.48 54.4808 337.229 61.644 338.144 69.2108C338.237 69.5999 338.237 69.9458 338.237 70.3206Z" fill="black"/>
<path opacity="0.1" d="M376.203 134.991C375.756 140.338 374.495 146.053 370.438 149.599C366.382 153.144 358.91 152.95 356.654 148.093C355.934 146.651 355.826 144.972 355.127 143.531C353.527 140.23 349.593 138.948 346.156 137.658C336.393 134.004 326.975 126.848 324.878 116.608C324.691 115.68 324.564 114.741 324.497 113.797C324.319 115.942 324.448 118.102 324.878 120.211C326.975 130.422 336.407 137.607 346.156 141.261C349.593 142.551 353.527 143.834 355.127 147.134C355.847 148.575 355.97 150.24 356.654 151.696C358.924 156.553 366.411 156.74 370.438 153.202C374.466 149.664 375.72 143.942 376.203 138.595C376.422 135.78 376.497 132.956 376.426 130.134C376.426 131.77 376.332 133.384 376.203 134.991Z" fill="black"/>
<path opacity="0.1" d="M431.857 82.204C431.857 83.249 431.857 84.2867 431.857 85.3244C432.261 71.9204 437.175 58.4444 436.692 45.3214C436.318 57.4571 432.131 69.8666 431.857 82.204Z" fill="black"/>
<path opacity="0.1" d="M416.395 136.425C416.572 135.57 416.628 134.695 416.56 133.824C416.27 131.959 415.616 130.169 414.636 128.556C410.472 120.629 405.723 112.514 405.161 103.715C405.161 104.09 405.111 104.436 405.104 104.84C404.815 114.597 410.083 123.526 414.636 132.159C415.41 133.496 416.002 134.931 416.395 136.425Z" fill="black"/>
<path opacity="0.1" d="M436.001 125.998C435.463 134.728 432.979 143.228 428.73 150.874C424.926 157.8 418.203 164.696 410.414 163.363C409.716 163.303 409.06 163.005 408.555 162.52C408.409 162.355 408.294 162.164 408.217 161.958C408.13 162.52 408.058 163.089 408.015 163.666C407.866 164.524 408.06 165.407 408.555 166.123C409.06 166.609 409.716 166.906 410.414 166.966C418.203 168.3 424.926 161.403 428.73 154.478C432.979 146.832 435.463 138.332 436.001 129.601C436.087 127.915 436.094 126.236 436.044 124.556C436.029 125.039 436.029 125.515 436.001 125.998Z" fill="black"/>
</g>
<path opacity="0.1" d="M437.175 342.941C437.175 342.941 455.412 350.594 467.438 333.659" stroke="black" stroke-miterlimit="10"/>
<path opacity="0.1" d="M440.763 356.316C440.763 356.316 455.657 346.63 474.629 355.999" stroke="black" stroke-miterlimit="10"/>
<path opacity="0.1" d="M341.069 354.118C341.069 354.118 347.323 340.008 364.025 350.767" stroke="black" stroke-miterlimit="10"/>
<path opacity="0.1" d="M320.793 145.448L333.547 133.918C333.547 133.918 382.997 130.675 385.044 147.487C385.044 147.487 402.575 127.554 439.445 131.993L455.044 144.417L411.927 163.341L370.028 177.877L339.167 164.062L320.793 145.448Z" fill="black"/>
<path d="M320.793 146.168L333.547 134.638C333.547 134.638 382.997 131.395 385.044 148.208C385.044 148.208 402.575 128.275 439.445 132.714L455.044 145.138L411.927 164.062L370.028 178.598L339.167 164.783L320.793 146.168Z" fill="#D5D6DB"/>
<path opacity="0.1" d="M315.151 147.61L320.793 215.113L380.598 218.118L378.004 150.903L377.953 149.772L315.151 147.61Z" fill="black"/>
<path d="M315.151 146.169L320.793 213.671L380.598 216.676L378.004 149.462L377.953 148.33L315.151 146.169Z" fill="#6C63FF"/>
<path opacity="0.1" d="M457.783 146.169L396.09 155.422V223.227L456.378 214.515L457.783 146.169Z" fill="black"/>
<path d="M457.783 144.727L396.09 153.98V221.786L456.378 213.073L457.783 144.727Z" fill="#6C63FF"/>
<path opacity="0.3" d="M443.235 161.273L409.91 164.977L410.637 176.335L443.213 172.775L443.235 161.273Z" fill="#FFFAF5"/>
<path d="M324.035 249.819L327.429 258.95C327.429 258.95 332.473 263.273 337.992 261.111C343.511 258.95 348.325 257.876 350.724 255.771C353.123 253.667 356.488 243.095 356.488 243.095C356.488 243.095 359.853 231.565 363.211 228.682C366.569 225.8 375.46 186.085 363.211 189.969C350.962 193.854 341.595 229.886 341.595 229.886C341.595 229.886 339.433 232.523 336.313 232.768C333.193 233.013 326.946 232.286 325.743 234.93C324.539 237.575 320.432 244.537 324.035 249.819Z" fill="#BE6F72"/>
<path opacity="0.1" d="M396.089 155.414C392.931 156.126 389.65 156.089 386.508 155.306C383.366 154.522 380.451 153.015 377.997 150.903L380.598 218.111C380.598 218.111 386.722 224.74 396.089 223.227V155.414Z" fill="black"/>
<path d="M396.089 153.973C392.931 154.685 389.65 154.648 386.508 153.864C383.366 153.081 380.451 151.573 377.997 149.462L380.598 216.669C380.598 216.669 386.722 223.299 396.089 221.786V153.973Z" fill="#6C63FF"/>
<path opacity="0.1" d="M396.089 153.973C392.931 154.685 389.65 154.648 386.508 153.864C383.366 153.081 380.451 151.573 377.997 149.462L380.598 216.669C380.598 216.669 386.722 223.299 396.089 221.786V153.973Z" fill="black"/>
<path opacity="0.1" d="M397.531 146.399C397.531 146.399 422.627 138.724 429.17 139.805L397.531 146.399Z" fill="black"/>
<path opacity="0.1" d="M369.458 143.048C369.458 143.048 345.133 137.283 341.069 138.919L369.458 143.048Z" fill="black"/>
<path opacity="0.1" d="M413.354 147.358C413.354 147.358 430.135 141.203 436.202 144.129L413.354 147.358Z" fill="black"/>
<path opacity="0.1" d="M404.902 301.741C407.502 299.788 410.27 298.069 413.174 296.603C417.497 294.521 425.423 289.116 425.423 289.116" fill="black"/>
<path opacity="0.1" d="M341.069 228.2C341.069 228.2 330.542 236.811 327.379 237.568C324.215 238.325 322.263 245.041 322.263 245.041" fill="black"/>
<path d="M451.593 248.536L448.235 257.688C448.235 257.688 443.192 262.012 437.665 259.85C432.138 257.688 427.34 256.615 424.933 254.51C422.526 252.406 419.169 241.834 419.169 241.834C419.169 241.834 415.811 230.304 412.446 227.421C409.081 224.539 400.197 184.824 412.446 188.708C424.695 192.593 434.062 228.625 434.062 228.625C434.062 228.625 436.224 231.262 439.344 231.507C442.464 231.752 448.711 231.025 449.914 233.669C451.118 236.314 455.196 243.275 451.593 248.536Z" fill="#BE6F72"/>
<path opacity="0.1" d="M445.706 231.702C445.706 231.702 452.587 236.127 452.558 241.416L445.706 231.702Z" fill="black"/>
<path d="M387.32 103.441C405.097 103.441 419.507 89.0289 419.507 71.2502C419.507 53.4715 405.097 39.059 387.32 39.059C369.544 39.059 355.134 53.4715 355.134 71.2502C355.134 89.0289 369.544 103.441 387.32 103.441Z" fill="#BE6F72"/>
<path d="M367.11 62.6097C371.015 61.9972 374.437 59.7271 378.17 58.4228C386.521 55.4897 395.758 57.5003 404.21 60.1451C407.453 61.1612 410.746 62.307 414.147 62.307C417.548 62.307 421.157 60.9162 422.894 57.9832C424.494 55.2879 424.184 51.7856 422.836 48.9535C421.489 46.1213 419.234 43.8441 416.957 41.6966C409.463 34.6198 400.168 28.0043 389.886 28.725C385.75 29.0204 381.794 30.4977 377.99 32.1336C373.199 34.1983 368.536 36.5469 364.026 39.1671C360.56 41.1777 354.14 43.8657 352.144 47.541C347.604 55.8212 360.048 63.7195 367.11 62.6097Z" fill="#3E373A"/>
<path opacity="0.1" d="M422.894 54.9564C421.157 57.8894 417.548 59.2803 414.147 59.2803C410.746 59.2803 407.453 58.1777 404.203 57.1616C395.751 54.5168 386.521 52.499 378.163 55.4392C374.437 56.7436 371.008 59.0425 367.102 59.619C361.41 60.5126 352.245 55.5545 351.25 49.2489C350.134 56.5346 360.762 62.7754 367.102 61.7809C371.008 61.1684 374.437 58.8983 378.163 57.6012C386.521 54.6609 395.751 56.6788 404.203 59.3235C407.453 60.3396 410.738 61.4855 414.147 61.4422C417.555 61.399 421.157 60.0586 422.894 57.1183C423.794 55.5188 424.148 53.6694 423.903 51.8504C423.79 52.9455 423.446 54.0043 422.894 54.9564Z" fill="black"/>
<path d="M684.098 445.51C684.098 445.51 688.37 451.095 682.123 459.534C675.876 467.973 670.732 475.093 672.807 480.353C672.807 480.353 682.231 464.687 689.898 464.463C697.565 464.24 692.521 454.929 684.098 445.51Z" fill="#6C63FF"/>
<path opacity="0.1" d="M684.098 445.51C684.47 446.05 684.763 446.639 684.97 447.261C692.449 456.053 696.441 464.261 689.242 464.463C682.541 464.658 674.507 476.642 672.583 479.662C672.645 479.906 672.72 480.146 672.807 480.382C672.807 480.382 682.232 464.715 689.898 464.492C697.565 464.269 692.521 454.929 684.098 445.51Z" fill="black"/>
<path d="M692.024 452.63C692.024 454.598 691.8 456.19 691.534 456.19C691.267 456.19 691.037 454.598 691.037 452.63C691.037 450.663 691.31 451.592 691.584 451.592C691.858 451.592 692.024 450.663 692.024 452.63Z" fill="#FFD037"/>
<path d="M694.754 454.979C693.032 455.916 691.526 456.486 691.397 456.248C691.267 456.01 692.557 455.052 694.279 454.086C696.001 453.12 695.324 453.826 695.453 454.086C695.583 454.345 696.484 454.035 694.754 454.979Z" fill="#FFD037"/>
<path d="M661.516 445.51C661.516 445.51 657.243 451.095 663.49 459.534C669.737 467.973 674.882 475.093 672.8 480.353C672.8 480.353 663.382 464.687 655.708 464.463C648.035 464.24 653.114 454.929 661.516 445.51Z" fill="#6C63FF"/>
<path opacity="0.1" d="M661.516 445.51C661.144 446.05 660.85 446.639 660.644 447.261C653.165 456.053 649.173 464.261 656.371 464.463C663.065 464.658 671.106 476.642 673.03 479.662C672.97 479.907 672.893 480.148 672.8 480.382C672.8 480.382 663.382 464.715 655.708 464.492C648.035 464.269 653.114 454.929 661.516 445.51Z" fill="black"/>
<path d="M653.576 452.63C653.576 454.598 653.792 456.19 654.066 456.19C654.339 456.19 654.563 454.598 654.563 452.63C654.563 450.663 654.282 451.592 654.015 451.592C653.749 451.592 653.576 450.663 653.576 452.63Z" fill="#FFD037"/>
<path d="M650.852 454.979C652.574 455.916 654.08 456.486 654.21 456.248C654.339 456.01 653.049 455.052 651.327 454.086C649.605 453.12 650.283 453.826 650.153 454.086C650.023 454.345 649.122 454.035 650.852 454.979Z" fill="#FFD037"/>
<path opacity="0.1" d="M672.807 523.102C697.48 523.102 717.481 520.034 717.481 516.249C717.481 512.464 697.48 509.395 672.807 509.395C648.134 509.395 628.133 512.464 628.133 516.249C628.133 520.034 648.134 523.102 672.807 523.102Z" fill="#6C63FF"/>
<path d="M695.799 472.823L695.583 474.567L695.281 477.031L695.158 478.062L694.856 480.526L694.726 481.557L694.43 484.014L691.008 512.047C690.705 514.548 686.62 516.501 681.684 516.501H663.923C658.987 516.501 654.909 514.548 654.599 512.047L651.176 484.014L650.874 481.557L650.751 480.526L650.448 478.062L650.319 477.031L650.023 474.567L649.807 472.823C649.641 471.381 651.846 470.214 654.642 470.214H690.972C693.76 470.214 695.972 471.403 695.799 472.823Z" fill="#65617D"/>
<path d="M695.583 474.567L695.288 477.031H650.326L650.023 474.567H695.583Z" fill="#9D9CB5"/>
<path d="M695.158 478.062L694.863 480.526H650.751L650.448 478.062H695.158Z" fill="#9D9CB5"/>
<path d="M694.733 481.557L694.43 484.021H651.176L650.881 481.557H694.733Z" fill="#9D9CB5"/>
</g>
<defs>
<linearGradient id="paint0_linear" x1="393.877" y1="361.706" x2="393.877" y2="-6.18694e-05" gradientUnits="userSpaceOnUse">
<stop stop-color="#808080" stop-opacity="0.25"/>
<stop offset="0.54" stop-color="#808080" stop-opacity="0.12"/>
<stop offset="1" stop-color="#808080" stop-opacity="0.1"/>
</linearGradient>
<clipPath id="clip0">
<rect width="737" height="586" fill="white"/>
</clipPath>
</defs>
</svg>
