<svg width="281" height="58" viewBox="0 0 281 58" fill="none" xmlns="http://www.w3.org/2000/svg">
<path d="M69.0068 22.6444V24.3244H73.0948V26.8164H69.0068V29.9524H65.7028V20.1524H73.6688V22.6444H69.0068ZM77.4878 23.1204C78.0478 22.4764 78.8738 22.1544 79.9658 22.1544V24.9544C79.7138 24.9171 79.4805 24.8984 79.2658 24.8984C78.1832 24.8984 77.6418 25.4491 77.6418 26.5504V29.9524H74.4778V22.2944H77.4878V23.1204ZM88.9422 26.1164C88.9422 26.1631 88.9282 26.4104 88.9002 26.8584H83.5802C83.6922 27.1477 83.8789 27.3717 84.1402 27.5304C84.4016 27.6797 84.7282 27.7544 85.1202 27.7544C85.4562 27.7544 85.7362 27.7124 85.9602 27.6284C86.1936 27.5444 86.4456 27.3997 86.7162 27.1944L88.3682 28.8604C87.6216 29.6817 86.5062 30.0924 85.0222 30.0924C84.0982 30.0924 83.2862 29.9244 82.5862 29.5884C81.8862 29.2431 81.3449 28.7671 80.9622 28.1604C80.5796 27.5537 80.3882 26.8724 80.3882 26.1164C80.3882 25.3511 80.5749 24.6697 80.9482 24.0724C81.3309 23.4657 81.8489 22.9944 82.5022 22.6584C83.1649 22.3224 83.9069 22.1544 84.7282 22.1544C85.5029 22.1544 86.2076 22.3084 86.8422 22.6164C87.4862 22.9244 87.9949 23.3771 88.3682 23.9744C88.7509 24.5717 88.9422 25.2857 88.9422 26.1164ZM84.7562 24.3104C84.4296 24.3104 84.1589 24.3991 83.9442 24.5764C83.7296 24.7537 83.5896 25.0057 83.5242 25.3324H85.9882C85.9229 25.0151 85.7829 24.7677 85.5682 24.5904C85.3536 24.4037 85.0829 24.3104 84.7562 24.3104ZM98.0887 26.1164C98.0887 26.1631 98.0747 26.4104 98.0467 26.8584H92.7267C92.8387 27.1477 93.0254 27.3717 93.2867 27.5304C93.5481 27.6797 93.8747 27.7544 94.2667 27.7544C94.6027 27.7544 94.8827 27.7124 95.1067 27.6284C95.3401 27.5444 95.5921 27.3997 95.8627 27.1944L97.5147 28.8604C96.7681 29.6817 95.6527 30.0924 94.1687 30.0924C93.2447 30.0924 92.4327 29.9244 91.7327 29.5884C91.0327 29.2431 90.4914 28.7671 90.1087 28.1604C89.7261 27.5537 89.5347 26.8724 89.5347 26.1164C89.5347 25.3511 89.7214 24.6697 90.0947 24.0724C90.4774 23.4657 90.9954 22.9944 91.6487 22.6584C92.3114 22.3224 93.0534 22.1544 93.8747 22.1544C94.6494 22.1544 95.3541 22.3084 95.9887 22.6164C96.6327 22.9244 97.1414 23.3771 97.5147 23.9744C97.8974 24.5717 98.0887 25.2857 98.0887 26.1164ZM93.9027 24.3104C93.5761 24.3104 93.3054 24.3991 93.0907 24.5764C92.8761 24.7537 92.7361 25.0057 92.6707 25.3324H95.1347C95.0694 25.0151 94.9294 24.7677 94.7147 24.5904C94.5001 24.4037 94.2294 24.3104 93.9027 24.3104ZM106.047 27.6424V29.9524H98.7388V28.1324L101.903 24.6044H98.8508V22.2944H105.893V24.1144L102.729 27.6424H106.047ZM115.083 26.1164C115.083 26.1631 115.069 26.4104 115.041 26.8584H109.721C109.833 27.1477 110.02 27.3717 110.281 27.5304C110.542 27.6797 110.869 27.7544 111.261 27.7544C111.597 27.7544 111.877 27.7124 112.101 27.6284C112.334 27.5444 112.586 27.3997 112.857 27.1944L114.509 28.8604C113.762 29.6817 112.647 30.0924 111.163 30.0924C110.239 30.0924 109.427 29.9244 108.727 29.5884C108.027 29.2431 107.486 28.7671 107.103 28.1604C106.72 27.5537 106.529 26.8724 106.529 26.1164C106.529 25.3511 106.716 24.6697 107.089 24.0724C107.472 23.4657 107.99 22.9944 108.643 22.6584C109.306 22.3224 110.048 22.1544 110.869 22.1544C111.644 22.1544 112.348 22.3084 112.983 22.6164C113.627 22.9244 114.136 23.3771 114.509 23.9744C114.892 24.5717 115.083 25.2857 115.083 26.1164ZM110.897 24.3104C110.57 24.3104 110.3 24.3991 110.085 24.5764C109.87 24.7537 109.73 25.0057 109.665 25.3324H112.129C112.064 25.0151 111.924 24.7677 111.709 24.5904C111.494 24.4037 111.224 24.3104 110.897 24.3104ZM119.091 23.1204C119.651 22.4764 120.477 22.1544 121.569 22.1544V24.9544C121.317 24.9171 121.084 24.8984 120.869 24.8984C119.787 24.8984 119.245 25.4491 119.245 26.5504V29.9524H116.081V22.2944H119.091V23.1204ZM127.282 20.1524C128.187 20.1524 128.976 20.3017 129.648 20.6004C130.32 20.8991 130.838 21.3284 131.202 21.8884C131.566 22.4484 131.748 23.1017 131.748 23.8484C131.748 24.5951 131.566 25.2484 131.202 25.8084C130.838 26.3684 130.32 26.7977 129.648 27.0964C128.976 27.3951 128.187 27.5444 127.282 27.5444H125.868V29.9524H122.564V20.1524H127.282ZM127.072 24.9964C127.52 24.9964 127.856 24.8984 128.08 24.7024C128.304 24.4971 128.416 24.2124 128.416 23.8484C128.416 23.4844 128.304 23.2044 128.08 23.0084C127.856 22.8031 127.52 22.7004 127.072 22.7004H125.868V24.9964H127.072ZM136.78 30.0924C135.93 30.0924 135.165 29.9244 134.484 29.5884C133.812 29.2431 133.284 28.7717 132.902 28.1744C132.519 27.5677 132.328 26.8817 132.328 26.1164C132.328 25.3511 132.519 24.6697 132.902 24.0724C133.284 23.4657 133.812 22.9944 134.484 22.6584C135.165 22.3224 135.93 22.1544 136.78 22.1544C137.638 22.1544 138.404 22.3224 139.076 22.6584C139.757 22.9944 140.284 23.4657 140.658 24.0724C141.04 24.6697 141.232 25.3511 141.232 26.1164C141.232 26.8817 141.04 27.5677 140.658 28.1744C140.284 28.7717 139.757 29.2431 139.076 29.5884C138.404 29.9244 137.638 30.0924 136.78 30.0924ZM136.78 27.6284C137.144 27.6284 137.442 27.4977 137.676 27.2364C137.909 26.9657 138.026 26.5924 138.026 26.1164C138.026 25.6404 137.909 25.2717 137.676 25.0104C137.442 24.7491 137.144 24.6184 136.78 24.6184C136.416 24.6184 136.117 24.7491 135.884 25.0104C135.65 25.2717 135.534 25.6404 135.534 26.1164C135.534 26.5924 135.65 26.9657 135.884 27.2364C136.117 27.4977 136.416 27.6284 136.78 27.6284ZM142.222 22.2944H145.386V29.9524H142.222V22.2944ZM143.804 21.6784C143.235 21.6784 142.773 21.5291 142.418 21.2304C142.073 20.9224 141.9 20.5351 141.9 20.0684C141.9 19.6017 142.073 19.2191 142.418 18.9204C142.773 18.6124 143.235 18.4584 143.804 18.4584C144.383 18.4584 144.845 18.6031 145.19 18.8924C145.535 19.1817 145.708 19.5551 145.708 20.0124C145.708 20.4977 145.535 20.8991 145.19 21.2164C144.845 21.5244 144.383 21.6784 143.804 21.6784ZM152.108 22.1544C153.051 22.1544 153.807 22.4391 154.376 23.0084C154.955 23.5777 155.244 24.4364 155.244 25.5844V29.9524H152.08V26.1304C152.08 25.2531 151.768 24.8144 151.142 24.8144C150.788 24.8144 150.498 24.9404 150.274 25.1924C150.06 25.4351 149.952 25.8224 149.952 26.3544V29.9524H146.788V22.2944H149.798V23.0504C150.097 22.7517 150.442 22.5277 150.834 22.3784C151.226 22.2291 151.651 22.1544 152.108 22.1544ZM162.26 29.6864C161.784 29.9571 161.136 30.0924 160.314 30.0924C159.241 30.0924 158.415 29.8357 157.836 29.3224C157.258 28.7997 156.968 28.0204 156.968 26.9844V25.0244H155.918V22.7144H156.968V20.5724H160.132V22.7144H161.7V25.0244H160.132V26.9564C160.132 27.1897 160.193 27.3717 160.314 27.5024C160.436 27.6331 160.594 27.6984 160.79 27.6984C161.061 27.6984 161.299 27.6284 161.504 27.4884L162.26 29.6864Z" fill="#9BA0FC"/>
<line x1="64.9048" y1="40.09" x2="240.286" y2="40.09" stroke="black" stroke-opacity="0.59"/>
<g clip-path="url(#clip0)">
<path d="M53.8623 20.5821C53.6278 18.819 53.5947 15.7822 55.2324 14.7625C55.2616 14.7438 55.2834 14.7168 55.309 14.6936C56.6479 14.2654 57.5745 13.6644 56.8471 12.8557L37.0969 6.90479L5.11673 11.351C5.11673 11.351 1.4546 11.8745 1.78175 17.5641C1.95934 20.6607 2.93056 22.1815 3.77993 22.93L1.15567 23.7208C0.427293 24.5295 1.35369 25.1307 2.69273 25.5582C2.71818 25.5821 2.73964 25.6089 2.76941 25.6276C4.40601 26.6482 4.37451 29.6846 4.1391 31.4481C-1.74035 33.1175 0.370173 33.6616 0.370173 33.6616L1.65989 33.9737C0.752708 34.7934 -0.148241 36.348 0.0205246 39.2963C0.347844 44.9848 3.35585 45.3774 3.35585 45.3774L24.2835 52.1796L55.8712 44.5286C55.8712 44.5286 57.9825 43.9837 52.1014 42.314C51.865 40.5533 51.8321 37.5172 53.4725 36.4941C53.5026 36.4759 53.5246 36.4484 53.549 36.4255C54.8881 35.9973 55.8138 35.3968 55.0863 34.5881L53.7133 34.1736C54.6289 33.6214 56.0043 32.1783 56.2198 28.4298C56.3685 25.8514 55.6959 24.3414 54.9173 23.4523L57.6311 22.7956C57.6312 22.7967 59.7425 22.2518 53.8623 20.5821ZM27.4411 20.5092L32.7529 19.4175L50.7041 15.7286L53.3785 15.1785C52.524 16.7426 52.5598 18.883 52.7012 20.2588C52.7322 20.57 52.7679 20.8542 52.8025 21.0702L49.8751 21.7981L27.2178 27.4345L27.4411 20.5092ZM4.62341 26.0453L7.29753 26.5954L24.5371 30.1393L26.0432 30.4477L30.5597 31.3761L30.7824 38.3015L7.49555 32.5079L5.19981 31.9374C5.23357 31.721 5.26922 31.4372 5.30159 31.1251C5.44214 29.7504 5.47867 27.6094 4.62341 26.0453ZM3.58451 17.2902C3.55214 15.7769 3.82182 14.6824 4.36689 14.1261C4.71377 13.7709 5.12313 13.697 5.40389 13.697C5.55223 13.697 5.65903 13.7176 5.6663 13.7176L19.4457 18.2099L26.3205 20.4513L26.0949 27.425L6.80854 22.0179L5.79075 21.7328C5.75337 21.7223 5.70265 21.715 5.66353 21.7133C5.58408 21.7076 3.67729 21.5321 3.58451 17.2902ZM24.3333 49.1583L4.02971 43.4659C3.99214 43.455 3.94195 43.4478 3.90283 43.4459C3.82199 43.4405 1.91434 43.2652 1.82208 39.0244C1.78919 37.5091 2.06025 36.4157 2.60428 35.8588C2.95203 35.5036 3.36157 35.4297 3.6418 35.4297C3.79049 35.4297 3.89694 35.4496 3.90473 35.4496C3.90473 35.4496 3.9056 35.4496 3.90473 35.4496L24.5575 42.1844L24.3333 49.1583ZM50.9386 41.991C50.9706 42.3033 51.0063 42.587 51.0409 42.8033L25.4557 49.1682L25.6793 42.2427L31.1492 41.1181L31.9571 41.3135L34.9848 40.3295L48.9415 37.4615L51.617 36.9111C50.7615 38.475 50.797 40.6163 50.9386 41.991ZM52.3479 32.5791C52.3014 32.5801 52.2548 32.5863 52.211 32.6002L50.2814 33.1404L31.9079 38.2923L31.6832 31.3186L37.7114 29.3524L52.3078 24.5922C52.3097 24.5913 53.0756 24.4212 53.6378 24.9929C54.182 25.5492 54.452 26.6437 54.4202 28.157C54.325 32.3975 52.4173 32.5737 52.3479 32.5791Z" fill="#9BA0FC"/>
</g>
<defs>
<clipPath id="clip0">
<rect width="58" height="58" fill="white"/>
</clipPath>
</defs>
</svg>
