<svg width="203" height="42" viewBox="0 0 203 42" fill="none" xmlns="http://www.w3.org/2000/svg">
<path d="M51.102 15.692V17.372H55.19V19.864H51.102V23H47.798V13.2H55.764V15.692H51.102ZM59.583 16.168C60.143 15.524 60.969 15.202 62.061 15.202V18.002C61.809 17.9647 61.5757 17.946 61.361 17.946C60.2784 17.946 59.737 18.4967 59.737 19.598V23H56.573V15.342H59.583V16.168ZM71.0375 19.164C71.0375 19.2107 71.0235 19.458 70.9955 19.906H65.6755C65.7875 20.1953 65.9741 20.4193 66.2355 20.578C66.4968 20.7273 66.8235 20.802 67.2155 20.802C67.5515 20.802 67.8315 20.76 68.0555 20.676C68.2888 20.592 68.5408 20.4473 68.8115 20.242L70.4635 21.908C69.7168 22.7293 68.6015 23.14 67.1175 23.14C66.1935 23.14 65.3815 22.972 64.6815 22.636C63.9815 22.2907 63.4401 21.8147 63.0575 21.208C62.6748 20.6013 62.4835 19.92 62.4835 19.164C62.4835 18.3987 62.6701 17.7173 63.0435 17.12C63.4261 16.5133 63.9441 16.042 64.5975 15.706C65.2601 15.37 66.0021 15.202 66.8235 15.202C67.5981 15.202 68.3028 15.356 68.9375 15.664C69.5815 15.972 70.0901 16.4247 70.4635 17.022C70.8461 17.6193 71.0375 18.3333 71.0375 19.164ZM66.8515 17.358C66.5248 17.358 66.2541 17.4467 66.0395 17.624C65.8248 17.8013 65.6848 18.0533 65.6195 18.38H68.0835C68.0181 18.0627 67.8781 17.8153 67.6635 17.638C67.4488 17.4513 67.1781 17.358 66.8515 17.358ZM80.1839 19.164C80.1839 19.2107 80.1699 19.458 80.1419 19.906H74.8219C74.9339 20.1953 75.1206 20.4193 75.3819 20.578C75.6433 20.7273 75.9699 20.802 76.3619 20.802C76.6979 20.802 76.9779 20.76 77.2019 20.676C77.4353 20.592 77.6873 20.4473 77.9579 20.242L79.6099 21.908C78.8633 22.7293 77.7479 23.14 76.2639 23.14C75.3399 23.14 74.5279 22.972 73.8279 22.636C73.1279 22.2907 72.5866 21.8147 72.2039 21.208C71.8213 20.6013 71.6299 19.92 71.6299 19.164C71.6299 18.3987 71.8166 17.7173 72.1899 17.12C72.5726 16.5133 73.0906 16.042 73.7439 15.706C74.4066 15.37 75.1486 15.202 75.9699 15.202C76.7446 15.202 77.4493 15.356 78.0839 15.664C78.7279 15.972 79.2366 16.4247 79.6099 17.022C79.9926 17.6193 80.1839 18.3333 80.1839 19.164ZM75.9979 17.358C75.6713 17.358 75.4006 17.4467 75.1859 17.624C74.9713 17.8013 74.8313 18.0533 74.7659 18.38H77.2299C77.1646 18.0627 77.0246 17.8153 76.8099 17.638C76.5953 17.4513 76.3246 17.358 75.9979 17.358ZM88.1421 20.69V23H80.8341V21.18L83.9981 17.652H80.9461V15.342H87.9881V17.162L84.8241 20.69H88.1421ZM97.1781 19.164C97.1781 19.2107 97.1641 19.458 97.1361 19.906H91.8161C91.9281 20.1953 92.1147 20.4193 92.3761 20.578C92.6374 20.7273 92.9641 20.802 93.3561 20.802C93.6921 20.802 93.9721 20.76 94.1961 20.676C94.4294 20.592 94.6814 20.4473 94.9521 20.242L96.6041 21.908C95.8574 22.7293 94.7421 23.14 93.2581 23.14C92.3341 23.14 91.5221 22.972 90.8221 22.636C90.1221 22.2907 89.5807 21.8147 89.1981 21.208C88.8154 20.6013 88.6241 19.92 88.6241 19.164C88.6241 18.3987 88.8107 17.7173 89.1841 17.12C89.5667 16.5133 90.0847 16.042 90.7381 15.706C91.4007 15.37 92.1427 15.202 92.9641 15.202C93.7387 15.202 94.4434 15.356 95.0781 15.664C95.7221 15.972 96.2307 16.4247 96.6041 17.022C96.9867 17.6193 97.1781 18.3333 97.1781 19.164ZM92.9921 17.358C92.6654 17.358 92.3947 17.4467 92.1801 17.624C91.9654 17.8013 91.8254 18.0533 91.7601 18.38H94.2241C94.1587 18.0627 94.0187 17.8153 93.8041 17.638C93.5894 17.4513 93.3187 17.358 92.9921 17.358ZM101.187 16.168C101.747 15.524 102.573 15.202 103.665 15.202V18.002C103.413 17.9647 103.179 17.946 102.965 17.946C101.882 17.946 101.341 18.4967 101.341 19.598V23H98.1766V15.342H101.187V16.168ZM109.377 13.2C110.283 13.2 111.071 13.3493 111.743 13.648C112.415 13.9467 112.933 14.376 113.297 14.936C113.661 15.496 113.843 16.1493 113.843 16.896C113.843 17.6427 113.661 18.296 113.297 18.856C112.933 19.416 112.415 19.8453 111.743 20.144C111.071 20.4427 110.283 20.592 109.377 20.592H107.963V23H104.659V13.2H109.377ZM109.167 18.044C109.615 18.044 109.951 17.946 110.175 17.75C110.399 17.5447 110.511 17.26 110.511 16.896C110.511 16.532 110.399 16.252 110.175 16.056C109.951 15.8507 109.615 15.748 109.167 15.748H107.963V18.044H109.167ZM118.875 23.14C118.026 23.14 117.26 22.972 116.579 22.636C115.907 22.2907 115.38 21.8193 114.997 21.222C114.614 20.6153 114.423 19.9293 114.423 19.164C114.423 18.3987 114.614 17.7173 114.997 17.12C115.38 16.5133 115.907 16.042 116.579 15.706C117.26 15.37 118.026 15.202 118.875 15.202C119.734 15.202 120.499 15.37 121.171 15.706C121.852 16.042 122.38 16.5133 122.753 17.12C123.136 17.7173 123.327 18.3987 123.327 19.164C123.327 19.9293 123.136 20.6153 122.753 21.222C122.38 21.8193 121.852 22.2907 121.171 22.636C120.499 22.972 119.734 23.14 118.875 23.14ZM118.875 20.676C119.239 20.676 119.538 20.5453 119.771 20.284C120.004 20.0133 120.121 19.64 120.121 19.164C120.121 18.688 120.004 18.3193 119.771 18.058C119.538 17.7967 119.239 17.666 118.875 17.666C118.511 17.666 118.212 17.7967 117.979 18.058C117.746 18.3193 117.629 18.688 117.629 19.164C117.629 19.64 117.746 20.0133 117.979 20.284C118.212 20.5453 118.511 20.676 118.875 20.676ZM124.317 15.342H127.481V23H124.317V15.342ZM125.899 14.726C125.33 14.726 124.868 14.5767 124.513 14.278C124.168 13.97 123.995 13.5827 123.995 13.116C123.995 12.6493 124.168 12.2667 124.513 11.968C124.868 11.66 125.33 11.506 125.899 11.506C126.478 11.506 126.94 11.6507 127.285 11.94C127.631 12.2293 127.803 12.6027 127.803 13.06C127.803 13.5453 127.631 13.9467 127.285 14.264C126.94 14.572 126.478 14.726 125.899 14.726ZM134.204 15.202C135.146 15.202 135.902 15.4867 136.472 16.056C137.05 16.6253 137.34 17.484 137.34 18.632V23H134.176V19.178C134.176 18.3007 133.863 17.862 133.238 17.862C132.883 17.862 132.594 17.988 132.37 18.24C132.155 18.4827 132.048 18.87 132.048 19.402V23H128.884V15.342H131.894V16.098C132.192 15.7993 132.538 15.5753 132.93 15.426C133.322 15.2767 133.746 15.202 134.204 15.202ZM144.356 22.734C143.88 23.0047 143.231 23.14 142.41 23.14C141.336 23.14 140.51 22.8833 139.932 22.37C139.353 21.8473 139.064 21.068 139.064 20.032V18.072H138.014V15.762H139.064V13.62H142.228V15.762H143.796V18.072H142.228V20.004C142.228 20.2373 142.288 20.4193 142.41 20.55C142.531 20.6807 142.69 20.746 142.886 20.746C143.156 20.746 143.394 20.676 143.6 20.536L144.356 22.734Z" fill="#7A42A1" fill-opacity="0.7"/>
<line x1="47" y1="28.8927" x2="174" y2="28.8927" stroke="black" stroke-opacity="0.59"/>
<g clip-path="url(#clip0)">
<path d="M39.0037 14.9043C38.8339 13.6275 38.81 11.4285 39.9958 10.6901C40.017 10.6766 40.0328 10.657 40.0514 10.6402C41.0209 10.3301 41.6919 9.89492 41.1652 9.30931L26.8633 5L3.70522 8.2197C3.70522 8.2197 1.05333 8.59874 1.29023 12.7188C1.41883 14.9612 2.12213 16.0624 2.73719 16.6044L0.836863 17.1771C0.309419 17.7627 0.980256 18.1981 1.94991 18.5076C1.96834 18.5249 1.98388 18.5444 2.00544 18.5579C3.19056 19.2969 3.16775 21.4957 2.99728 22.7727C-1.26025 23.9817 0.268056 24.3756 0.268056 24.3756L1.20199 24.6016C0.545064 25.1952 -0.107347 26.3209 0.0148627 28.4559C0.251887 32.5752 2.4301 32.8595 2.4301 32.8595L17.5846 37.7852L40.4585 32.2448C40.4585 32.2448 41.9873 31.8502 37.7286 30.6412C37.5574 29.3662 37.5336 27.1676 38.7215 26.4267C38.7433 26.4136 38.7592 26.3936 38.7769 26.3771C39.7465 26.067 40.4169 25.6322 39.89 25.0466L38.8958 24.7464C39.5589 24.3465 40.5549 23.3015 40.7109 20.5871C40.8186 18.72 40.3315 17.6265 39.7677 16.9827L41.7328 16.5072C41.733 16.5079 43.2618 16.1133 39.0037 14.9043ZM19.8711 14.8515L23.7176 14.061L36.7167 11.3896L38.6534 10.9913C38.0346 12.1239 38.0605 13.6739 38.1629 14.6701C38.1854 14.8955 38.2112 15.1013 38.2363 15.2577L36.1165 15.7848L19.7094 19.8664L19.8711 14.8515ZM3.34799 18.8604L5.28442 19.2587L17.7682 21.825L18.8588 22.0484L22.1294 22.7206L22.2907 27.7356L5.42781 23.5402L3.76538 23.1271C3.78982 22.9704 3.81565 22.7648 3.83908 22.5388C3.94086 21.5433 3.96731 19.993 3.34799 18.8604ZM2.59568 12.5205C2.57224 11.4246 2.76753 10.6321 3.16223 10.2292C3.41342 9.972 3.70986 9.91848 3.91316 9.91848C4.02058 9.91848 4.09792 9.9334 4.10318 9.9334L14.0814 13.1864L19.0596 14.8095L18.8963 19.8595L4.93032 15.944L4.1933 15.7376C4.16623 15.7299 4.1295 15.7246 4.10118 15.7234C4.04364 15.7193 2.66286 15.5922 2.59568 12.5205ZM17.6207 35.5974L2.91806 31.4753C2.89086 31.4674 2.85451 31.4622 2.82619 31.4608C2.76765 31.4569 1.38624 31.3299 1.31943 28.259C1.29562 27.1617 1.49191 26.3699 1.88586 25.9667C2.13768 25.7095 2.43424 25.656 2.63717 25.656C2.74484 25.656 2.82192 25.6704 2.82756 25.6704C2.82756 25.6704 2.82819 25.6704 2.82756 25.6704L17.783 30.5473L17.6207 35.5974ZM36.8866 30.4073C36.9098 30.6334 36.9356 30.8388 36.9607 30.9955L18.4334 35.6045L18.5954 30.5895L22.5563 29.7752L23.1413 29.9167L25.3338 29.2041L35.4404 27.1273L37.3778 26.7287C36.7584 27.8612 36.784 29.4118 36.8866 30.4073ZM37.9071 23.5917C37.8734 23.5925 37.8397 23.597 37.808 23.607L36.4106 23.9982L23.1057 27.7289L22.943 22.679L27.3082 21.2552L37.878 17.8081C37.8794 17.8075 38.4341 17.6843 38.8412 18.0983C39.2353 18.5011 39.4308 19.2937 39.4077 20.3896C39.3388 23.4602 37.9574 23.5878 37.9071 23.5917Z" fill="#7A42A1" fill-opacity="0.7"/>
</g>
<defs>
<clipPath id="clip0">
<rect width="42" height="42" fill="white"/>
</clipPath>
</defs>
</svg>
